<?xml version="1.0" encoding="utf-8"?>
<!-- Generator: Adobe Illustrator 23.0.1, SVG Export Plug-In . SVG Version: 6.00 Build 0)  -->
<svg version="1.1" id="Layer_1" xmlns="http://www.w3.org/2000/svg" xmlns:xlink="http://www.w3.org/1999/xlink" x="0px" y="0px"
	 viewBox="0 0 940 274.73" style="enable-background:new 0 0 940 274.73;" xml:space="preserve">
<style type="text/css">
	.st0{fill:#638974;}
	.st1{fill:#FFFFFF;}
	.st2{fill-rule:evenodd;clip-rule:evenodd;fill:#638974;}
</style>
<g>
	<path class="st0" d="M82.4,131.28c-1.19-1.15-1.79-2.49-1.79-4.01V55.02c0-1.52,0.54-2.86,1.61-4.01c1.07-1.15,2.39-1.73,3.96-1.73
		h43.42c1.48,0,2.64,0.46,3.46,1.38c0.82,0.92,1.23,2.02,1.23,3.31s-0.41,2.4-1.23,3.34s-1.97,1.41-3.46,1.41H92.45v26.66h35.16
		c1.52,0,2.7,0.45,3.52,1.35c0.82,0.9,1.23,1.97,1.23,3.22c0,1.25-0.42,2.33-1.26,3.25c-0.84,0.92-2,1.38-3.49,1.38H92.45v29h38.67
		c1.48,0,2.64,0.47,3.46,1.41s1.23,2.05,1.23,3.34s-0.41,2.39-1.23,3.31c-0.82,0.92-1.97,1.38-3.46,1.38H86.47
		C84.95,133.01,83.59,132.43,82.4,131.28z"/>
	<path class="st0" d="M155.03,131.54c-1.13-0.98-1.7-2.34-1.7-4.1V54.9c0-1.76,0.59-3.13,1.76-4.13s2.56-1.49,4.16-1.49
		c1.56,0,2.93,0.5,4.1,1.49s1.76,2.37,1.76,4.13v33.28l34.75-36.68c1.41-1.48,2.87-2.23,4.39-2.23c1.44,0,2.7,0.47,3.75,1.41
		s1.58,2.09,1.58,3.46c0,1.33-0.43,2.42-1.29,3.28l-31.05,31.76l34.16,34.92c0.9,0.94,1.35,2.11,1.35,3.52
		c0,1.52-0.58,2.8-1.73,3.84c-1.15,1.04-2.51,1.55-4.07,1.55c-1.56,0-3.11-0.82-4.63-2.46l-37.21-39.08v35.98
		c0,1.76-0.6,3.13-1.79,4.1c-1.19,0.98-2.59,1.46-4.19,1.46C157.53,133.01,156.16,132.52,155.03,131.54z"/>
	<path class="st0" d="M383.84,131.48c-1.17-1.02-1.76-2.4-1.76-4.16V58.71h-22.09c-1.52,0-2.72-0.47-3.57-1.41
		c-0.86-0.94-1.29-2.05-1.29-3.34c0-1.25,0.43-2.34,1.29-3.28c0.86-0.94,2.05-1.41,3.57-1.41h55.72c1.56,0,2.76,0.46,3.6,1.38
		c0.84,0.92,1.26,2.02,1.26,3.31s-0.43,2.4-1.29,3.34c-0.86,0.94-2.05,1.41-3.57,1.41h-21.8v68.61c0,1.76-0.59,3.15-1.76,4.16
		c-1.17,1.02-2.56,1.52-4.16,1.52C386.4,133.01,385.01,132.5,383.84,131.48z"/>
	<path class="st0" d="M502.29,131.48c-1.15-0.98-1.73-2.36-1.73-4.16v-72.3c0-1.6,0.58-2.96,1.73-4.07
		c1.15-1.11,2.55-1.67,4.19-1.67h25.43c3.2,0,6.14,0.17,8.82,0.5c2.67,0.33,5.36,0.97,8.06,1.9s4.96,2.16,6.8,3.66
		c1.84,1.5,3.33,3.54,4.48,6.09c1.15,2.56,1.73,5.52,1.73,8.88c0,4.84-1.49,8.96-4.45,12.36c-2.97,3.4-7.38,5.65-13.24,6.74v0.23
		c9.18,1.99,14.38,8.26,15.59,18.81l2.11,18.4c0.04,0.2,0.06,0.47,0.06,0.82c0,1.56-0.55,2.83-1.64,3.81
		c-1.09,0.98-2.4,1.46-3.93,1.46c-1.56,0-2.98-0.46-4.25-1.38c-1.27-0.92-1.98-2.22-2.14-3.9l-1.82-16.35
		c-0.39-3.55-0.86-6.33-1.41-8.32c-0.55-1.99-1.44-3.65-2.67-4.98c-1.23-1.33-2.76-2.22-4.6-2.67c-1.84-0.45-4.32-0.67-7.44-0.67
		h-19.57v32.64c0,1.8-0.6,3.18-1.79,4.16c-1.19,0.98-2.59,1.46-4.19,1.46C504.81,132.95,503.44,132.46,502.29,131.48z M529.44,85.6
		c2.3,0,4.36-0.1,6.15-0.29c1.8-0.19,3.63-0.59,5.51-1.17s3.43-1.39,4.66-2.4c1.23-1.02,2.24-2.39,3.02-4.13
		c0.78-1.74,1.17-3.8,1.17-6.18c0-1.95-0.26-3.67-0.79-5.16c-0.53-1.48-1.3-2.68-2.31-3.57c-1.02-0.9-2.08-1.63-3.19-2.2
		c-1.11-0.57-2.47-0.98-4.07-1.23c-1.6-0.25-3.01-0.42-4.22-0.5c-1.21-0.08-2.66-0.12-4.34-0.12h-18.63V85.6H529.44z"/>
	<path class="st0" d="M583.73,131.45c-1.15-1-1.73-2.37-1.73-4.13V54.9c0-1.76,0.59-3.14,1.79-4.16c1.19-1.02,2.59-1.52,4.19-1.52
		c1.6,0,2.98,0.5,4.13,1.49c1.15,1,1.73,2.39,1.73,4.19v72.42c0,1.8-0.59,3.18-1.76,4.16c-1.17,0.98-2.58,1.46-4.22,1.46
		C586.26,132.95,584.88,132.45,583.73,131.45z"/>
	<path class="st0" d="M612.82,131.4c-1.13-1.07-1.7-2.39-1.7-3.96c0-1.37,0.43-2.7,1.29-3.98l45.12-64.75H616.4
		c-1.49,0-2.64-0.48-3.46-1.44c-0.82-0.96-1.23-2.08-1.23-3.37c0-1.25,0.41-2.33,1.23-3.25c0.82-0.92,1.97-1.38,3.46-1.38h49.28
		c1.72,0,3.11,0.49,4.16,1.46c1.05,0.98,1.58,2.23,1.58,3.75c0,1.41-0.49,2.83-1.46,4.28l-45.12,64.8h41.31
		c1.52,0,2.7,0.46,3.52,1.38c0.82,0.92,1.23,2.02,1.23,3.31s-0.41,2.4-1.23,3.34s-1.99,1.41-3.52,1.41H617.8
		C615.61,133.01,613.96,132.47,612.82,131.4z"/>
	<path class="st0" d="M736.4,111.68h-40.31l-6.91,17.81c-0.98,2.58-2.79,3.87-5.45,3.87c-1.52,0-2.88-0.49-4.07-1.46
		c-1.19-0.98-1.79-2.21-1.79-3.69c0-0.62,0.16-1.35,0.47-2.17l27.83-69.08c1.33-3.32,2.76-5.52,4.31-6.59
		c1.54-1.07,3.47-1.61,5.77-1.61c2.3,0,4.23,0.54,5.77,1.61c1.54,1.07,2.98,3.27,4.31,6.59l27.83,69.08
		c0.31,0.82,0.47,1.54,0.47,2.17c0,1.48-0.61,2.72-1.82,3.69c-1.21,0.98-2.58,1.46-4.1,1.46c-2.62,0-4.42-1.29-5.39-3.87
		L736.4,111.68z M716.24,59.88l-16.82,43.3h33.63L716.24,59.88z"/>
	<path class="st0" d="M809.81,129.49c-1.29-0.9-2.31-2.19-3.05-3.87l-27.3-61.29v63.81c0,1.33-0.54,2.36-1.61,3.11
		c-1.08,0.74-2.35,1.11-3.84,1.11c-1.45,0-2.72-0.37-3.81-1.11c-1.09-0.74-1.64-1.78-1.64-3.11V58.77c0-2.27,0.89-4.16,2.67-5.68
		c1.78-1.52,3.86-2.29,6.24-2.29c1.95,0,3.8,0.58,5.54,1.73c1.74,1.15,3.13,2.9,4.19,5.24l26.6,59.06l26.6-59.06
		c1.02-2.34,2.39-4.09,4.13-5.24c1.74-1.15,3.58-1.73,5.54-1.73c2.38,0,4.47,0.76,6.27,2.29c1.8,1.52,2.7,3.42,2.7,5.68v69.38
		c0,1.33-0.55,2.36-1.64,3.11c-1.09,0.74-2.36,1.11-3.81,1.11c-1.49,0-2.76-0.37-3.84-1.11c-1.08-0.74-1.61-1.78-1.61-3.11V64.34
		l-27.3,61.29c-0.74,1.68-1.76,2.97-3.05,3.87c-1.29,0.9-2.62,1.35-3.98,1.35C812.43,130.84,811.1,130.39,809.81,129.49z"/>
</g>
<g>
	<path class="st0" d="M201.46,271.77c-1.13-1.11-1.7-2.45-1.7-4.01v-72.36c0-1.6,0.57-2.95,1.7-4.04c1.13-1.09,2.5-1.64,4.1-1.64
		h23.61c9.8,0,17.05,1.83,21.74,5.48c4.69,3.65,7.03,8.78,7.03,15.38c0,5-1.46,9.26-4.37,12.77c-2.91,3.52-7.08,5.63-12.51,6.33
		v0.23c6.37,0.7,11.36,2.84,14.97,6.42c3.61,3.57,5.42,8.47,5.42,14.68c0,2.93-0.59,5.71-1.76,8.35s-2.88,5.02-5.13,7.15
		c-2.25,2.13-5.24,3.82-8.99,5.07c-3.75,1.25-8.01,1.88-12.77,1.88h-27.25C203.96,273.44,202.6,272.88,201.46,271.77z M227.48,225.8
		c6.6,0,11.42-1.13,14.44-3.4c3.03-2.27,4.54-5.98,4.54-11.13c0-2.11-0.32-3.93-0.97-5.45s-1.48-2.73-2.49-3.63
		c-1.02-0.9-2.32-1.6-3.93-2.11c-1.6-0.51-3.19-0.85-4.78-1.03s-3.45-0.26-5.6-0.26h-17.23v27.01H227.48z M230.41,264.24
		c6.6,0,11.38-1.03,14.33-3.08c2.95-2.05,4.42-5.93,4.42-11.63c0-5.63-1.84-9.47-5.51-11.54c-3.67-2.07-9.49-3.11-17.46-3.11h-14.71
		v29.36H230.41z"/>
	<path class="st0" d="M280.19,271.89c-1.15-1-1.73-2.37-1.73-4.13v-72.42c0-1.76,0.6-3.14,1.79-4.16c1.19-1.02,2.59-1.52,4.19-1.52
		c1.6,0,2.98,0.5,4.13,1.49c1.15,1,1.73,2.39,1.73,4.19v72.42c0,1.8-0.59,3.18-1.76,4.16c-1.17,0.98-2.58,1.46-4.22,1.46
		C282.71,273.38,281.34,272.88,280.19,271.89z"/>
	<path class="st0" d="M310.63,264.65c-0.47-0.43-0.7-1.02-0.7-1.76c0-1.25,0.6-2.54,1.79-3.87c1.19-1.33,2.39-1.99,3.6-1.99
		c0.55,0,1.03,0.16,1.46,0.47c6.64,5.16,14.34,7.73,23.09,7.73c5.7,0,10.36-1.13,13.97-3.4c3.61-2.27,5.42-5.55,5.42-9.84
		c0-2.07-0.26-3.84-0.79-5.3s-1.41-2.74-2.64-3.84c-1.23-1.09-2.63-2.01-4.19-2.75c-1.56-0.74-3.59-1.54-6.09-2.4l-16.82-5.63
		c-6.21-2.11-10.84-4.77-13.89-7.97c-3.05-3.2-4.57-7.62-4.57-13.24c0-4.53,1.32-8.52,3.96-11.95c2.64-3.44,6.19-6.04,10.66-7.79
		c4.47-1.76,9.52-2.64,15.15-2.64c5.51,0,10.77,0.89,15.79,2.67c5.02,1.78,8.86,3.86,11.51,6.24c0.9,0.78,1.35,1.76,1.35,2.93
		c0,1.21-0.45,2.31-1.35,3.28c-0.9,0.98-1.97,1.46-3.22,1.46c-0.9,0-1.76-0.27-2.58-0.82c-2.38-1.56-5.38-3-8.99-4.31
		c-3.61-1.31-7.47-1.96-11.57-1.96c-5.86,0-10.55,1.07-14.06,3.22c-3.52,2.15-5.27,5.25-5.27,9.32c0,3.05,0.91,5.48,2.72,7.29
		s4.72,3.39,8.7,4.72l16.88,5.45c3.4,1.09,6.28,2.25,8.64,3.46c2.36,1.21,4.51,2.69,6.45,4.42c1.93,1.74,3.38,3.82,4.34,6.24
		c0.96,2.42,1.44,5.21,1.44,8.38c0,7.66-2.82,13.61-8.47,17.87c-5.65,4.26-13.31,6.39-23,6.39
		C327.42,274.73,317.85,271.37,310.63,264.65z"/>
	<path class="st0" d="M407.66,271.92c-1.17-1.02-1.76-2.4-1.76-4.16v-68.61h-22.09c-1.52,0-2.72-0.47-3.57-1.41
		c-0.86-0.94-1.29-2.05-1.29-3.34c0-1.25,0.43-2.34,1.29-3.28c0.86-0.94,2.05-1.41,3.57-1.41h55.72c1.56,0,2.76,0.46,3.6,1.38
		c0.84,0.92,1.26,2.02,1.26,3.31s-0.43,2.4-1.29,3.34c-0.86,0.94-2.05,1.41-3.57,1.41h-21.8v68.61c0,1.76-0.59,3.15-1.76,4.16
		c-1.17,1.02-2.56,1.52-4.16,1.52C410.21,273.44,408.83,272.93,407.66,271.92z"/>
	<path class="st0" d="M458.02,271.92c-1.15-0.98-1.73-2.36-1.73-4.16v-72.3c0-1.6,0.58-2.96,1.73-4.07
		c1.15-1.11,2.55-1.67,4.19-1.67h25.43c3.2,0,6.14,0.17,8.82,0.5c2.67,0.33,5.36,0.97,8.06,1.9s4.96,2.16,6.8,3.66
		c1.84,1.5,3.33,3.54,4.48,6.09c1.15,2.56,1.73,5.52,1.73,8.88c0,4.84-1.49,8.96-4.45,12.36c-2.97,3.4-7.38,5.65-13.24,6.74v0.23
		c9.18,1.99,14.38,8.26,15.59,18.81l2.11,18.4c0.04,0.2,0.06,0.47,0.06,0.82c0,1.56-0.55,2.83-1.64,3.81
		c-1.09,0.98-2.4,1.46-3.93,1.46c-1.56,0-2.98-0.46-4.25-1.38c-1.27-0.92-1.98-2.22-2.14-3.9l-1.82-16.35
		c-0.39-3.55-0.86-6.33-1.41-8.32c-0.55-1.99-1.44-3.65-2.67-4.98c-1.23-1.33-2.76-2.22-4.6-2.67c-1.84-0.45-4.32-0.67-7.44-0.67
		h-19.57v32.64c0,1.8-0.6,3.18-1.79,4.16c-1.19,0.98-2.59,1.46-4.19,1.46C460.55,273.38,459.17,272.89,458.02,271.92z
		 M485.18,226.04c2.3,0,4.36-0.1,6.15-0.29c1.8-0.19,3.63-0.59,5.51-1.17s3.43-1.39,4.66-2.4c1.23-1.02,2.24-2.39,3.02-4.13
		c0.78-1.74,1.17-3.8,1.17-6.18c0-1.95-0.26-3.67-0.79-5.16c-0.53-1.48-1.3-2.68-2.31-3.57c-1.02-0.9-2.08-1.63-3.19-2.2
		c-1.11-0.57-2.47-0.98-4.07-1.23c-1.6-0.25-3.01-0.42-4.22-0.5c-1.21-0.08-2.66-0.12-4.34-0.12h-18.63v26.95H485.18z"/>
	<path class="st0" d="M539.46,271.89c-1.15-1-1.73-2.37-1.73-4.13v-72.42c0-1.76,0.59-3.14,1.79-4.16c1.19-1.02,2.59-1.52,4.19-1.52
		c1.6,0,2.98,0.5,4.13,1.49c1.15,1,1.73,2.39,1.73,4.19v72.42c0,1.8-0.59,3.18-1.76,4.16c-1.17,0.98-2.58,1.46-4.22,1.46
		C541.99,273.38,540.61,272.88,539.46,271.89z"/>
	<path class="st0" d="M586.37,268.99c-5.94-3.83-10.39-8.94-13.36-15.35c-2.97-6.41-4.45-13.65-4.45-21.74
		c0-6.02,0.91-11.66,2.72-16.93s4.38-9.87,7.71-13.8c3.32-3.93,7.5-7.02,12.54-9.29c5.04-2.27,10.63-3.4,16.76-3.4
		c7.58,0,14.63,1.82,21.15,5.45c1.72,0.94,2.58,2.29,2.58,4.04c0,1.25-0.43,2.34-1.29,3.28c-0.86,0.94-1.9,1.41-3.11,1.41
		c-0.59,0-1.23-0.16-1.93-0.47c-0.16-0.08-0.64-0.32-1.44-0.73c-0.8-0.41-1.46-0.72-1.96-0.94c-0.51-0.21-1.29-0.51-2.34-0.88
		c-1.05-0.37-2.07-0.66-3.05-0.88c-0.98-0.21-2.2-0.4-3.66-0.56c-1.46-0.16-2.98-0.23-4.54-0.23c-3.79,0-7.23,0.59-10.31,1.76
		c-3.09,1.17-5.68,2.79-7.79,4.86c-2.11,2.07-3.89,4.53-5.33,7.38c-1.45,2.85-2.5,5.93-3.16,9.23c-0.67,3.3-1,6.81-1,10.52
		c0,3.71,0.33,7.21,1,10.49c0.66,3.28,1.72,6.34,3.16,9.17c1.44,2.83,3.23,5.26,5.36,7.29c2.13,2.03,4.77,3.63,7.91,4.8
		c3.14,1.17,6.65,1.76,10.52,1.76c3.48,0,6.52-0.46,9.14-1.38c2.62-0.92,5.45-2.24,8.5-3.96c0.78-0.43,1.52-0.64,2.23-0.64
		c1.21,0,2.25,0.45,3.11,1.35c0.86,0.9,1.29,1.95,1.29,3.16c0,1.8-0.98,3.32-2.93,4.57c-6.52,4.26-14.22,6.39-23.09,6.39
		C599.28,274.73,592.3,272.82,586.37,268.99z"/>
	<path class="st0" d="M652.75,271.97c-1.13-0.98-1.7-2.34-1.7-4.1v-72.54c0-1.76,0.59-3.13,1.76-4.13s2.56-1.49,4.16-1.49
		c1.56,0,2.93,0.5,4.1,1.49s1.76,2.37,1.76,4.13v33.28l34.75-36.68c1.41-1.48,2.87-2.23,4.39-2.23c1.44,0,2.7,0.47,3.75,1.41
		s1.58,2.09,1.58,3.46c0,1.33-0.43,2.42-1.29,3.28l-31.05,31.76l34.16,34.92c0.9,0.94,1.35,2.11,1.35,3.52
		c0,1.52-0.58,2.8-1.73,3.84c-1.15,1.04-2.51,1.55-4.07,1.55c-1.56,0-3.11-0.82-4.63-2.46l-37.21-39.08v35.98
		c0,1.76-0.6,3.13-1.79,4.1c-1.19,0.98-2.59,1.46-4.19,1.46C655.25,273.44,653.89,272.95,652.75,271.97z"/>
	<path class="st0" d="M728.72,271.89c-1.15-1-1.73-2.37-1.73-4.13v-72.42c0-1.76,0.59-3.14,1.79-4.16c1.19-1.02,2.59-1.52,4.19-1.52
		c1.6,0,2.98,0.5,4.13,1.49c1.15,1,1.73,2.39,1.73,4.19v72.42c0,1.8-0.59,3.18-1.76,4.16c-1.17,0.98-2.58,1.46-4.22,1.46
		C731.25,273.38,729.87,272.88,728.72,271.89z"/>
</g>
<g>
	<g>
		<path class="st0" d="M253.41,42.14c-27.31,0-49.45,22.15-49.45,49.47c0,27.32,22.14,49.47,49.45,49.47
			c27.31,0,49.45-22.15,49.45-49.47C302.86,64.28,280.72,42.14,253.41,42.14z M253.41,135.61c-24.3,0-43.99-19.7-43.99-44
			c0-24.3,19.69-44.01,43.99-44.01c24.29,0,43.99,19.7,43.99,44.01C297.4,115.91,277.7,135.61,253.41,135.61z"/>
		<path class="st1" d="M253.66,44.94c-25.66,0-46.47,20.8-46.47,46.45c0,25.65,20.8,46.45,46.47,46.45
			c25.66,0,46.47-20.79,46.47-46.45C300.13,65.74,279.32,44.94,253.66,44.94z M253.66,134.27c-23.69,0-42.89-19.2-42.89-42.88
			c0-23.68,19.2-42.88,42.89-42.88c23.69,0,42.89,19.2,42.89,42.88C296.55,115.07,277.35,134.27,253.66,134.27z"/>
		<path class="st0" d="M253.66,46.92c-24.57,0-44.49,19.91-44.49,44.47s19.92,44.47,44.49,44.47c24.57,0,44.49-19.91,44.49-44.47
			S278.23,46.92,253.66,46.92z M289.94,76.01c1.37,3.08-0.22,6.08-3.53,6.69l-21.48,3.89c-3.32,0.6-4.46-1.17-2.54-3.94l12.33-17.77
			c1.92-2.77,5.36-3.01,7.65-0.54L289.94,76.01z M268.67,54.69c3.09,1.35,4.03,4.71,2.1,7.47l-12.25,17.48
			c-1.93,2.76-4.02,2.31-4.64-1l-3.91-20.91c-0.62-3.31,0.31-6.15,2.06-6.31c0,0,0,0,1.63,0C261.2,51.42,268.67,54.69,268.67,54.69z
			 M238.53,55.01c3.09-1.34,6.11,0.27,6.72,3.58l3.83,20.97c0.61,3.31-1.16,4.45-3.93,2.52l-17.6-12.25
			c-2.76-1.93-2.98-5.34-0.47-7.59L238.53,55.01z M217.22,75.8c1.39-3.07,4.78-3.99,7.54-2.06l17.77,12.48
			c2.76,1.94,2.3,4.01-1.02,4.62l-21.55,3.91c-3.32,0.6-6.14-0.23-6.28-1.85c0,0,0,0,0-1.51C213.68,83.61,217.22,75.8,217.22,75.8z
			 M217.13,106.17c-1.32-3.1,0.31-6.11,3.63-6.7l21.2-3.75c3.32-0.59,4.45,1.19,2.52,3.95l-12.45,17.77
			c-1.93,2.76-5.35,2.96-7.59,0.45L217.13,106.17z M238.3,127.93c-3.08-1.37-4.02-4.76-2.1-7.53l12.6-18.16
			c1.92-2.77,3.99-2.32,4.59,0.99l3.98,21.81c0.6,3.31-0.33,6.15-2.08,6.31c0,0,0,0-1.63,0C245.98,131.36,238.3,127.93,238.3,127.93
			z M269.11,127.64c-3.08,1.37-6.1-0.22-6.72-3.53l-4.03-21.53c-0.62-3.31,1.13-4.43,3.89-2.5l17.81,12.52
			c2.76,1.94,2.98,5.38,0.5,7.66L269.11,127.64z M290.43,106.29c-1.34,3.09-4.71,4.04-7.47,2.12l-17.79-12.38
			c-2.77-1.92-2.31-3.98,1-4.56l21.16-3.74c3.32-0.59,6.16,0.35,6.31,2.07c0,0,0,0,0,1.61C293.64,98.89,290.43,106.29,290.43,106.29
			z"/>
	</g>
	<path class="st1" d="M260.69,91.39c0,3.88-3.15,7.02-7.02,7.02c-3.88,0-7.02-3.14-7.02-7.02c0-3.88,3.15-7.02,7.02-7.02
		C257.54,84.37,260.69,87.51,260.69,91.39z"/>
	<path class="st0" d="M257.44,91.39c0,2.09-1.69,3.78-3.78,3.78c-2.09,0-3.78-1.69-3.78-3.78c0-2.09,1.69-3.78,3.78-3.78
		C255.75,87.61,257.44,89.3,257.44,91.39z"/>
</g>
<path class="st2" d="M550.49,152c3.62-0.76,7.68,1.16,10.45-0.31c-3.18-1.28-8.79-1.87-9.74-4.81c1.05-0.29,1.42,0.6,2.26,0.68
	c-0.25-1.75-2.07-0.79-1.73-3.55c0.94,0.42,2.05,2.27,3.12,0.52c-1.45-3.38-2.92-6.34-1.02-8.67c0.17,2.07,0.39,3.44,1.05,1.47
	c-0.42,2.92,0.69,5.29,2.11,6.8c0.09-1.52-1.05-4.2-0.14-4.96c5.26,23.76,29.48,15.05,41.98,26.43c2.33-0.3,4.26,0.08,6.9-0.75
	c4.82,2.93,8.9-0.63,13.74-2.04c14.71-4.28,36.22-3.52,37.85-19.89c0.57-0.1,0.5,0.88,0.98,0.92c0.53-1.11,0.1-3.13,0.84-4.04
	c0.63,1.3-1,2.83,0.38,3.25c0.52-0.8-0.13-2.69,0.96-2.95c1.29,4.63-2.49,8.89-3.86,11.81c2.08-0.94,4.22-4.38,5.6-4.38
	c-0.66,3.23-4.42,3.92-4.98,5.93c-0.13,1.53,1.97-0.77,1.84,0.76c-5.26,0.5-9.61,4.93-14.94,6.7c-3.93,1.31-8.41,0.74-11.9,2.8
	c-0.45,0.26-0.97,1.74-1.52,1.95c-6.78,2.56-14.59,0.47-19.04,5.26c1.74,3.54,6.79,1.4,8.82,4.43c-2.88,1.07-6.19,3.12-10.13,3.02
	c-0.53,2.19-1.03,1.36-1.75,3.65c-0.29,0.05-0.57,0.11-0.85,0.16c-0.04-0.36-0.09-0.72-0.13-1.08c-0.86-2.24-5.62-2.53-5.19,0.42
	c-1.01-1.09-2.21-1.86-3.01-3.31c-4.26,2.18-6.23-0.46-10.15-0.85c3.12-1.89,7.48-2.62,9.39-5.65c-4.42-4.43-9.76-2.34-15.19-6.55
	c-1.35-0.14-1.49,0.85-2.5,1.03c-1.06-1.76-6.15-4.53-9.8-5.35c-2.18-4.3-7.69-2.89-11.81-3.86c0.69-0.64,2.11-0.59,2.44-1.57
	c-2.26-0.91-6.66,1.85-8.31-0.09c1.82-0.7,4.92-0.21,5.92-1.67c-3.34,0.3-5.85-0.83-8.86-1.1
	C550.53,152.37,550.51,152.19,550.49,152z"/>
<g>
	<g>
		<path class="st0" d="M484.71,0c-19.03,0.44-5.45,42.14-5.45,42.14l-0.77,56.33c-0.04,32.89-27.03,28.65-27.03,28.65
			c-29.87,1.77-21.2-29.28-21.2-29.28c3.13,7.1,15.21,4.99,15.21,4.99c-10.84-15.75-8.85-53.54-8.85-53.54
			c-11.32,14.42-16.71,46.11-16.71,46.11c-9.4,44.15,28.43,42.15,28.43,42.15c39.7,0.3,39.7-19.75,39.7-19.75l1.02-83.19
			c-0.48-5.32,1.69-9.1,1.69-9.1C501.1-0.67,484.71,0,484.71,0z M484.09,22.11c0,0-7.31-13.63-0.19-14.49
			C483.9,7.61,493.08,7.27,484.09,22.11z"/>
	</g>
</g>
</svg>
